Coordinates
version=1
nRows=13
nColumns=40
inDegrees=yes

Units are S.I. units (second, meters, Newtons, ...)
Angles are in degrees.

endheader
time	pelvis_tilt	pelvis_list	pelvis_rotation	pelvis_tx	pelvis_ty	pelvis_tz	hip_flexion_r	hip_adduction_r	hip_rotation_r	knee_angle_r	knee_angle_r_beta	ankle_angle_r	subtalar_angle_r	mtp_angle_r	hip_flexion_l	hip_adduction_l	hip_rotation_l	knee_angle_l	knee_angle_l_beta	ankle_angle_l	subtalar_angle_l	mtp_angle_l	lumbar_extension	lumbar_bending	lumbar_rotation	arm_flex_r	arm_add_r	arm_rot_r	elbow_flex_r	pro_sup_r	wrist_flex_r	wrist_dev_r	arm_flex_l	arm_add_l	arm_rot_l	elbow_flex_l	pro_sup_l	wrist_flex_l	wrist_dev_l
     55.17000000	     -3.80109719	     -3.48468752	     -0.82554947	      1.11324760	      0.93363049	      0.44863317	     31.30993719	     -7.20372735	     -5.98260364	     72.17585659	     72.17585659	      3.48749601	    -17.17811549	      3.18143791	     13.89875385	     -3.97936940	     -9.65000843	     20.06589421	     20.06589421	     12.04423808	    -10.78047874	     -2.22010682	     -9.57154387	      5.26020638	      1.51223719	     11.35459905	    -12.59292063	     -6.01488770	     68.07587903	     21.74659659	      0.00000000	      0.00000000	     10.64960147	    -14.21749329	     -2.56793102	     40.16992068	     22.43653989	      0.00000000	      0.00000000
     55.18135714	     -3.66309751	     -3.59466432	     -1.16935073	      1.11237479	      0.93393985	      0.44851610	     32.30613565	     -7.03580027	     -5.96397412	     70.57238382	     70.57238382	      3.22110828	    -17.21794668	      2.33214019	     12.90162599	     -4.01466329	     -9.63675878	     19.69411797	     19.69411797	     12.15968030	    -11.35785135	     -2.74385109	     -9.73037786	      5.42586478	      1.52908054	     10.21781177	    -12.38863916	     -5.39402228	     63.20458021	     44.95766531	      0.00000000	      0.00000000	     11.42928631	    -14.88863817	     -0.33752012	     43.05847779	     45.81410768	      0.00000000	      0.00000000
     55.19271429	     -3.46420302	     -3.82961968	     -1.51285425	      1.11158017	      0.93427143	      0.44842469	     33.07571769	     -6.69226640	     -6.01460454	     68.75820377	     68.75820377	      3.16723608	    -17.15997241	      2.51489204	     11.90211767	     -4.23756650	     -9.78603766	     19.48483797	     19.48483797	     12.63118525	    -11.43622951	     -2.80537113	    -10.06724716	      5.79986226	      2.42542092	      8.01536584	    -12.95706565	     -5.31185798	     59.78365351	     45.07113329	      0.00000000	      0.00000000	     13.38580500	    -15.02673487	     -0.59487339	     44.74105540	     45.88512476	      0.00000000	      0.00000000
     55.20407143	     -3.36053367	     -3.98545799	     -1.81355526	      1.11075790	      0.93445115	      0.44835696	     33.79628186	     -6.44095413	     -6.11365842	     66.70025742	     66.70025742	      3.05192888	    -17.06965601	      2.62077618	     11.02198796	     -4.38222206	    -10.01308495	     19.27561661	     19.27561661	     13.10076758	    -11.36938969	     -2.83138976	    -10.16853244	      6.04634309	      2.02212836	      8.27128670	    -12.25810356	     -5.86890274	     51.66950663	     45.39938175	      0.00000000	      0.00000000	     14.23775005	    -15.87710026	     -0.91838127	     47.01697764	     45.98327007	      0.00000000	      0.00000000
     55.21542857	     -3.20490760	     -4.14016095	     -2.11389455	      1.11003168	      0.93455998	      0.44832810	     34.30428137	     -6.15033336	     -6.20765436	     64.37235696	     64.37235696	      2.94775673	    -16.93238966	      2.84700870	     10.08240842	     -4.50277515	    -10.18184898	     19.06441987	     19.06441987	     13.59499318	    -11.39810485	     -2.77134768	    -10.41989246	      6.30416440	      2.01681654	      7.70632624	    -12.12529791	     -5.91023600	     45.82512705	     45.62074661	      0.00000000	      0.00000000	     15.21477007	    -16.38226744	     -1.91313260	     49.67927421	     46.15469646	      0.00000000	      0.00000000
     55.22678571	     -3.04725403	     -4.34375550	     -2.38117408	      1.10937814	      0.93461471	      0.44830301	     34.61899623	     -5.80269286	     -6.37726188	     61.70920374	     61.70920374	      2.84333491	    -16.74477728	      3.20268819	      9.10929419	     -4.65510089	    -10.28786927	     18.77843846	     18.77843846	     14.02864556	    -11.45337924	     -2.78958790	    -10.74121016	      6.68833932	      2.66953129	      5.71457721	    -12.52467748	     -5.81001314	     43.36786927	     45.69772350	      0.00000000	      0.00000000	     16.90209020	    -16.44393536	     -2.34493880	     51.35623190	     46.23425290	      0.00000000	      0.00000000
     55.23814286	     -2.99406141	     -4.39306225	     -2.66296670	      1.10875801	      0.93437839	      0.44839602	     34.91601393	     -5.59710574	     -6.51643247	     58.75539531	     58.75539531	      2.58659915	    -16.50516555	      2.92819770	      8.26459917	     -4.66626179	    -10.54149071	     18.52047425	     18.52047425	     14.47843396	    -11.35948680	     -2.80234335	    -10.83181829	      6.81827063	      2.17669371	      6.28979823	    -11.97728916	     -6.51008214	     35.70859753	     46.03539573	      0.00000000	      0.00000000	     17.30741809	    -17.17630892	     -3.57976262	     54.45850523	     46.42164495	      0.00000000	      0.00000000
     55.24950000	     -2.92295698	     -4.54728343	     -2.90149284	      1.10823668	      0.93412406	      0.44846682	     34.98853179	     -5.28211024	     -6.76886746	     55.44076239	     55.44076239	      2.47014999	    -15.97352089	      3.21557818	      7.36558453	     -4.75870541	    -10.65137382	     18.19351874	     18.19351874	     14.88814413	    -11.34498152	     -2.85087818	    -11.05708791	      7.14743840	      2.67326532	      4.30482020	    -12.30883572	     -6.53900372	     33.84529876	     46.09819862	      0.00000000	      0.00000000	     18.78740170	    -17.21704447	     -4.03253939	     56.15812086	     46.49817925	      0.00000000	      0.00000000
     55.26085714	     -2.89133985	     -4.52289950	     -3.16788883	      1.10786389	      0.93363783	      0.44870771	     34.96532394	     -5.10251745	     -6.98354322	     51.84689774	     51.84689774	      2.35922427	    -15.37204480	      3.04359696	      6.46818338	     -4.67970600	    -10.96722816	     17.80812748	     17.80812748	     15.26820996	    -11.19483343	     -2.95974867	    -11.21258782	      7.22503279	      3.25371251	      2.67839907	    -12.47055133	     -6.72891797	     30.89946205	     46.22204448	      0.00000000	      0.00000000	     20.06068903	    -17.25695872	     -4.61281310	     58.63977874	     46.59705991	      0.00000000	      0.00000000
     55.27221429	     -3.11385445	     -4.39147797	     -3.35393561	      1.10742161	      0.93258293	      0.44894376	     35.12187160	     -5.01165817	     -7.20175044	     48.06512534	     48.06512534	      2.36365422	    -14.49417648	      3.36891998	      5.99022791	     -4.50505417	    -11.12628667	     17.64632863	     17.64632863	     15.65806394	    -11.17530109	     -3.11468767	    -10.93964467	      7.24562320	      2.86840608	      0.97900793	    -12.47621434	     -6.78100039	     29.83564339	     46.25677560	      0.00000000	      0.00000000	     21.13646327	    -18.01210480	     -4.99671849	     59.57132648	     46.64943023	      0.00000000	      0.00000000
     55.28357143	     -3.27067905	     -4.40247077	     -3.52956561	      1.10723771	      0.93168280	      0.44932386	     34.89982828	     -4.74972884	     -7.61687267	     43.84051593	     43.84051593	      2.35161904	    -13.28143487	      3.66644327	      5.30228772	     -4.46868760	    -11.29487097	     17.27126886	     17.27126886	     16.03460801	    -11.03156981	     -3.24173499	    -10.77691872	      7.40897767	      2.90150037	     -0.87488395	    -12.59626351	     -6.83557871	     28.47509880	     46.30421032	      0.00000000	      0.00000000	     22.25475803	    -18.38038598	     -5.37647057	     61.03578403	     46.70893360	      0.00000000	      0.00000000
     55.29492857	     -3.00604997	     -4.65516688	     -3.72169070	      1.10771723	      0.93151642	      0.44982954	     33.79912876	     -4.30374887	     -8.47143888	     39.11871161	     39.11871161	      2.29512964	    -11.29040576	      3.26023742	      3.80443372	     -4.63964625	    -11.68045178	     16.36544670	     16.36544670	     16.38747430	    -10.45471885	     -3.41144998	    -11.22060789	      7.80141410	      4.00420679	     -2.76461930	    -12.90772380	     -7.05354908	     25.75785940	     46.42972625	      0.00000000	      0.00000000	     23.18121808	    -17.63370311	     -5.87562360	     64.78294988	     46.81307203	      0.00000000	      0.00000000
     55.30628571	     -3.11808689	     -4.51305986	     -3.88822256	      1.10805981	      0.93030824	      0.45050106	     33.07358148	     -4.09023460	     -9.03602882	     34.27483252	     34.27483252	      1.11782149	     -9.80779251	      0.13855695	      2.91978959	     -4.47868134	    -12.21816361	     15.77214263	     15.77214263	     16.60140759	     -9.73803275	     -4.22251166	    -11.16888492	      7.67289213	      2.50963334	     -2.30094622	    -12.45612134	     -8.87055698	     21.17626314	     46.84621025	      0.00000000	      0.00000000	     21.53980899	    -18.91637941	     -8.17761021	     71.12952207	     47.10709418	      0.00000000	      0.00000000
